V-love_default.ufo
<glyph name="exclam" format="2">
  <advance width="194"/>
  <unicode hex="0021"/>
  <outline>
    <contour>
      <point x="144" y="487" type="curve" smooth="yes"/>
      <point x="144" y="635.012"/>
      <point x="123.405" y="755"/>
      <point x="98" y="755" type="curve" smooth="yes"/>
      <point x="72.5949" y="755"/>
      <point x="52" y="635.012"/>
      <point x="52" y="487" type="curve" smooth="yes"/>
      <point x="52" y="338.988"/>
      <point x="72.5949" y="219"/>
      <point x="98" y="219" type="curve" smooth="yes"/>
      <point x="123.405" y="219"/>
      <point x="144" y="338.988"/>
    </contour>
    <contour>
      <point x="144" y="50.5" type="curve" smooth="yes"/>
      <point x="144" y="85.5701"/>
      <point x="122.957" y="114"/>
      <point x="97" y="114" type="curve" smooth="yes"/>
      <point x="71.0426" y="114"/>
      <point x="50" y="85.5701"/>
      <point x="50" y="50.5" type="curve" smooth="yes"/>
      <point x="50" y="15.4299"/>
      <point x="71.0426" y="-13"/>
      <point x="97" y="-13" type="curve" smooth="yes"/>
      <point x="122.957" y="-13"/>
      <point x="144" y="15.4299"/>
    </contour>
  </outline>
</glyph>
<glyph name="comma" format="2">
  <advance width="500"/>
  <unicode hex="002C"/>
  <outline>
    <contour>
      <point x="296" y="-2" type="curve" smooth="yes"/>
      <point x="296" y="31"/>
      <point x="281" y="57"/>
      <point x="262" y="57" type="curve" smooth="yes"/>
      <point x="243" y="57"/>
      <point x="230" y="34"/>
      <point x="230" y="1" type="curve" smooth="yes"/>
      <point x="230" y="-9"/>
      <point x="271" y="7"/>
      <point x="274" y="-1" type="curve" smooth="yes"/>
      <point x="279" y="-20"/>
      <point x="251" y="-59"/>
      <point x="265" y="-59" type="curve" smooth="yes"/>
      <point x="284" y="-59"/>
      <point x="296" y="-35"/>
    </contour>
  </outline>
</glyph>
<glyph name="hyphen" format="2">
  <advance width="500"/>
  <unicode hex="002D"/>
  <outline>
    <contour>
      <point x="430" y="260" type="curve" smooth="yes"/>
      <point x="430" y="278.7776814932"/>
      <point x="351.8736888401" y="294"/>
      <point x="255.5" y="294" type="curve" smooth="yes"/>
      <point x="159.1263111599" y="294"/>
      <point x="81" y="278.7776814932"/>
      <point x="81" y="260" type="curve" smooth="yes"/>
      <point x="81" y="241.2223185068"/>
      <point x="159.1263111599" y="226"/>
      <point x="255.5" y="226" type="curve" smooth="yes"/>
      <point x="351.8736888401" y="226"/>
      <point x="430" y="241.2223185068"/>
    </contour>
  </outline>
</glyph>
<glyph name="period" format="2">
  <advance width="500"/>
  <unicode hex="002E"/>
  <outline>
    <contour>
      <point x="287" y="33" type="curve" smooth="yes"/>
      <point x="287" y="53.9868"/>
      <point x="270.658" y="71"/>
      <point x="250.5" y="71" type="curve" smooth="yes"/>
      <point x="230.342" y="71"/>
      <point x="214" y="53.9868"/>
      <point x="214" y="33" type="curve" smooth="yes"/>
      <point x="214" y="12.0132"/>
      <point x="230.342" y="-5"/>
      <point x="250.5" y="-5" type="curve" smooth="yes"/>
      <point x="270.658" y="-5"/>
      <point x="287" y="12.0132"/>
    </contour>
  </outline>
</glyph>
<glyph name="question" format="2">
  <advance width="500"/>
  <unicode hex="003F"/>
  <outline>
    <contour>
      <point x="307" y="13.5" type="curve" smooth="yes"/>
      <point x="307" y="36.4198"/>
      <point x="289.763" y="55"/>
      <point x="268.5" y="55" type="curve" smooth="yes"/>
      <point x="247.237" y="55"/>
      <point x="230" y="36.4198"/>
      <point x="230" y="13.5" type="curve" smooth="yes"/>
      <point x="230" y="-9.41982"/>
      <point x="247.237" y="-28"/>
      <point x="268.5" y="-28" type="curve" smooth="yes"/>
      <point x="289.763" y="-28"/>
      <point x="307" y="-9.41982"/>
    </contour>
    <contour>
      <point x="280" y="134" type="curve" smooth="yes"/>
      <point x="303" y="134"/>
      <point x="279" y="419"/>
      <point x="290" y="454" type="curve" smooth="yes"/>
      <point x="298" y="480"/>
      <point x="403" y="448"/>
      <point x="411" y="527" type="curve" smooth="yes"/>
      <point x="415" y="565"/>
      <point x="363" y="741"/>
      <point x="307" y="757" type="curve" smooth="yes"/>
      <point x="274" y="766"/>
      <point x="133" y="703"/>
      <point x="153" y="658" type="curve" smooth="yes"/>
      <point x="163" y="636"/>
      <point x="281" y="681"/>
      <point x="306" y="673" type="curve" smooth="yes"/>
      <point x="327" y="666"/>
      <point x="347" y="580"/>
      <point x="336" y="558" type="curve" smooth="yes"/>
      <point x="323" y="531"/>
      <point x="204" y="479"/>
      <point x="204" y="454" type="curve" smooth="yes"/>
      <point x="204" y="287.762"/>
      <point x="229" y="134"/>
    </contour>
  </outline>
</glyph>
<glyph name="A" format="2">
  <advance width="744"/>
  <unicode hex="0041"/>
  <outline>
    <contour>
      <point x="617" y="311" type="curve" smooth="yes"/>
      <point x="617" y="555.386"/>
      <point x="484.476" y="753.5"/>
      <point x="321" y="753.5" type="curve" smooth="yes"/>
      <point x="212.752" y="753.5"/>
      <point x="125" y="559.415"/>
      <point x="125" y="320" type="curve" smooth="yes"/>
      <point x="125" y="208.483"/>
      <point x="91.3633" y="159.587"/>
      <point x="173" y="26" type="curve" smooth="yes"/>
      <point x="206" y="-28"/>
      <point x="281.67" y="400.118"/>
      <point x="375" y="392" type="curve" smooth="yes"/>
      <point x="473.424" y="383.439"/>
      <point x="625.207" y="-81.2332"/>
      <point x="621" y="41" type="curve" smooth="yes"/>
      <point x="618.479" y="114.237"/>
      <point x="617" y="207.98"/>
    </contour>
    <contour>
      <point x="486" y="537" type="curve" smooth="yes"/>
      <point x="486" y="480"/>
      <point x="434" y="434"/>
      <point x="370" y="434" type="curve" smooth="yes"/>
      <point x="306" y="434"/>
      <point x="254" y="480"/>
      <point x="254" y="537" type="curve" smooth="yes"/>
      <point x="254" y="593"/>
      <point x="306" y="640"/>
      <point x="370" y="640" type="curve" smooth="yes"/>
      <point x="434" y="640"/>
      <point x="486" y="593"/>
    </contour>
  </outline>
</glyph>
<glyph name="B" format="2">
  <advance width="538"/>
  <unicode hex="0042"/>
  <outline>
    <contour>
      <point x="324" y="354" type="curve" smooth="yes"/>
      <point x="324" y="422"/>
      <point x="496" y="477"/>
      <point x="475" y="532" type="curve" smooth="yes"/>
      <point x="429" y="646"/>
      <point x="343" y="723"/>
      <point x="244.5" y="723" type="curve" smooth="yes"/>
      <point x="98.4207" y="723"/>
      <point x="50" y="545"/>
      <point x="50" y="337" type="curve" smooth="yes"/>
      <point x="50" y="129"/>
      <point x="98.4207" y="-31"/>
      <point x="244.5" y="-31" type="curve" smooth="yes"/>
      <point x="354" y="-31"/>
      <point x="448" y="64"/>
      <point x="488" y="199" type="curve" smooth="yes"/>
      <point x="502" y="244"/>
      <point x="324" y="302"/>
    </contour>
    <contour>
      <point x="352" y="541" type="curve" smooth="yes"/>
      <point x="352" y="508.415"/>
      <point x="296" y="404"/>
      <point x="239" y="404" type="curve"/>
      <point x="182" y="404"/>
      <point x="144" y="508.415"/>
      <point x="144" y="541" type="curve" smooth="yes"/>
      <point x="144" y="573.585"/>
      <point x="190.562" y="600"/>
      <point x="248" y="600" type="curve" smooth="yes"/>
      <point x="305.438" y="600"/>
      <point x="352" y="573.585"/>
    </contour>
    <contour>
      <point x="374" y="147" type="curve" smooth="yes"/>
      <point x="374" y="103.37"/>
      <point x="315.125" y="68"/>
      <point x="242.5" y="68" type="curve" smooth="yes"/>
      <point x="169.875" y="68"/>
      <point x="140" y="106"/>
      <point x="140" y="149" type="curve" smooth="yes"/>
      <point x="140" y="193"/>
      <point x="177" y="300"/>
      <point x="249" y="300" type="curve" smooth="yes"/>
      <point x="322" y="300"/>
      <point x="374" y="190.63"/>
    </contour>
  </outline>
</glyph>
<glyph name="C" format="2">
  <advance width="543"/>
  <unicode hex="0043"/>
  <outline>
    <contour>
      <point x="178" y="385" type="curve" smooth="yes"/>
      <point x="178" y="599"/>
      <point x="524" y="758"/>
      <point x="414" y="758" type="curve" smooth="yes"/>
      <point x="303" y="758"/>
      <point x="54" y="595"/>
      <point x="54" y="381" type="curve" smooth="yes"/>
      <point x="54" y="167"/>
      <point x="364" y="20"/>
      <point x="475" y="20" type="curve" smooth="yes"/>
      <point x="585" y="20"/>
      <point x="178" y="171"/>
    </contour>
  </outline>
</glyph>
<glyph name="D" format="2">
  <advance width="630"/>
  <unicode hex="0044"/>
  <outline>
    <contour>
      <point x="580.116" y="364" type="curve" smooth="yes"/>
      <point x="580.116" y="569"/>
      <point x="268.116" y="758"/>
      <point x="143.116" y="758" type="curve" smooth="yes"/>
      <point x="18.1163" y="758"/>
      <point x="55.1163" y="593"/>
      <point x="55.1163" y="388" type="curve" smooth="yes"/>
      <point x="55.1163" y="182"/>
      <point x="27.1163" y="13"/>
      <point x="152.116" y="13" type="curve" smooth="yes"/>
      <point x="277.116" y="13"/>
      <point x="580.116" y="158"/>
    </contour>
    <contour>
      <point x="476" y="353" type="curve" smooth="yes"/>
      <point x="476" y="238.677"/>
      <point x="365.862" y="146"/>
      <point x="230" y="146" type="curve" smooth="yes"/>
      <point x="167.04" y="146"/>
      <point x="116" y="248.079"/>
      <point x="116" y="374" type="curve" smooth="yes"/>
      <point x="116" y="521.46"/>
      <point x="165.696" y="641"/>
      <point x="227" y="641" type="curve" smooth="yes"/>
      <point x="364.519" y="641"/>
      <point x="476" y="512.058"/>
    </contour>
  </outline>
</glyph>
<glyph name="E" format="2">
  <advance width="500"/>
  <unicode hex="0045"/>
  <outline>
    <contour>
      <point x="406" y="372" type="curve" smooth="yes"/>
      <point x="406" y="437"/>
      <point x="170" y="400"/>
      <point x="149" y="453" type="curve" smooth="yes"/>
      <point x="141" y="473"/>
      <point x="139" y="601"/>
      <point x="195" y="638" type="curve" smooth="yes"/>
      <point x="243" y="670"/>
      <point x="363" y="660"/>
      <point x="354" y="673" type="curve" smooth="yes"/>
      <point x="314" y="732"/>
      <point x="233" y="743"/>
      <point x="205" y="743" type="curve" smooth="yes"/>
      <point x="143" y="743"/>
      <point x="93" y="577"/>
      <point x="93" y="372" type="curve" smooth="yes"/>
      <point x="93" y="166"/>
      <point x="143" y="0"/>
      <point x="205" y="0" type="curve" smooth="yes"/>
      <point x="240" y="0"/>
      <point x="371" y="-44"/>
      <point x="417" y="41" type="curve" smooth="yes"/>
      <point x="424" y="55"/>
      <point x="282" y="23"/>
      <point x="217" y="97" type="curve" smooth="yes"/>
      <point x="152" y="170"/>
      <point x="162" y="273"/>
      <point x="167" y="289" type="curve" smooth="yes"/>
      <point x="181" y="333"/>
      <point x="406" y="322"/>
    </contour>
  </outline>
</glyph>
<glyph name="F" format="2">
  <advance width="500"/>
  <unicode hex="0046"/>
  <outline>
    <contour>
      <point x="285" y="431" type="curve" smooth="yes"/>
      <point x="215" y="515"/>
      <point x="140" y="540"/>
      <point x="132" y="600" type="curve" smooth="yes"/>
      <point x="127" y="633"/>
      <point x="472" y="643"/>
      <point x="465" y="667" type="curve" smooth="yes"/>
      <point x="452" y="715"/>
      <point x="172" y="736"/>
      <point x="154" y="736" type="curve" smooth="yes"/>
      <point x="111" y="736"/>
      <point x="75" y="570"/>
      <point x="75" y="366" type="curve" smooth="yes"/>
      <point x="75" y="161"/>
      <point x="111" y="-4"/>
      <point x="154" y="-4" type="curve" smooth="yes"/>
      <point x="191" y="-4"/>
      <point x="145" y="225"/>
      <point x="153" y="391" type="curve" smooth="yes"/>
      <point x="154" y="417"/>
      <point x="303" y="409"/>
    </contour>
  </outline>
</glyph>
<glyph name="G" format="2">
  <advance width="500"/>
  <unicode hex="0047"/>
  <outline>
    <contour>
      <point x="422" y="381" type="curve" smooth="yes"/>
      <point x="403" y="385"/>
      <point x="346" y="353"/>
      <point x="362" y="304" type="curve" smooth="yes"/>
      <point x="407" y="164"/>
      <point x="305" y="135"/>
      <point x="280" y="133" type="curve" smooth="yes"/>
      <point x="255" y="131"/>
      <point x="137" y="217"/>
      <point x="111" y="312" type="curve" smooth="yes"/>
      <point x="90.4336" y="385.451"/>
      <point x="141.647" y="638.487"/>
      <point x="237" y="669" type="curve" smooth="yes"/>
      <point x="376" y="714"/>
      <point x="374" y="733"/>
      <point x="249" y="750" type="curve" smooth="yes"/>
      <point x="191" y="758"/>
      <point x="62" y="589"/>
      <point x="62" y="383" type="curve" smooth="yes"/>
      <point x="62" y="177"/>
      <point x="257" y="8"/>
      <point x="316" y="8" type="curve" smooth="yes"/>
      <point x="375" y="8"/>
      <point x="484" y="369"/>
    </contour>
  </outline>
</glyph>
<glyph name="H" format="2">
  <advance width="500"/>
  <unicode hex="0048"/>
  <outline>
    <contour>
      <point x="450" y="383" type="curve" smooth="yes"/>
      <point x="450" y="464"/>
      <point x="449" y="678"/>
      <point x="417" y="740" type="curve" smooth="yes"/>
      <point x="395" y="784"/>
      <point x="366" y="765"/>
      <point x="358" y="748" type="curve" smooth="yes"/>
      <point x="339" y="709"/>
      <point x="387" y="478"/>
      <point x="380" y="462" type="curve" smooth="yes"/>
      <point x="370" y="438"/>
      <point x="183" y="411"/>
      <point x="174" y="449" type="curve" smooth="yes"/>
      <point x="150" y="542"/>
      <point x="187" y="689"/>
      <point x="162" y="744" type="curve" smooth="yes"/>
      <point x="155" y="760"/>
      <point x="114" y="761"/>
      <point x="106" y="744" type="curve" smooth="yes"/>
      <point x="71" y="679"/>
      <point x="61" y="479"/>
      <point x="61" y="385" type="curve" smooth="yes"/>
      <point x="61" y="309"/>
      <point x="81" y="70"/>
      <point x="107" y="11" type="curve" smooth="yes"/>
      <point x="140" y="-63"/>
      <point x="138" y="206"/>
      <point x="173" y="330" type="curve" smooth="yes"/>
      <point x="186" y="376"/>
      <point x="343" y="344"/>
      <point x="352" y="344" type="curve" smooth="yes"/>
      <point x="384" y="344"/>
      <point x="352" y="-83"/>
      <point x="399" y="11" type="curve" smooth="yes"/>
      <point x="430" y="72"/>
      <point x="450" y="301"/>
    </contour>
  </outline>
</glyph>
<glyph name="I" format="2">
  <advance width="289"/>
  <unicode hex="0049"/>
  <outline>
    <contour>
      <point x="195.458" y="373.5" type="curve" smooth="yes"/>
      <point x="195.458" y="446"/>
      <point x="185.458" y="594"/>
      <point x="192.458" y="671" type="curve" smooth="yes"/>
      <point x="194.458" y="686"/>
      <point x="238.458" y="676"/>
      <point x="237.458" y="687" type="curve" smooth="yes"/>
      <point x="236.458" y="702"/>
      <point x="243.458" y="723"/>
      <point x="235.458" y="733" type="curve" smooth="yes"/>
      <point x="225.458" y="745"/>
      <point x="159.458" y="745"/>
      <point x="146.958" y="745" type="curve" smooth="yes"/>
      <point x="135.458" y="745"/>
      <point x="55.4579" y="744"/>
      <point x="52.4579" y="738" type="curve" smooth="yes"/>
      <point x="46.4579" y="726"/>
      <point x="53.4579" y="714"/>
      <point x="52.4579" y="698" type="curve" smooth="yes"/>
      <point x="51.4579" y="688"/>
      <point x="99.4579" y="684"/>
      <point x="101.458" y="669" type="curve" smooth="yes"/>
      <point x="109.458" y="591"/>
      <point x="98.4579" y="450"/>
      <point x="98.4579" y="373.5" type="curve" smooth="yes"/>
      <point x="98.4579" y="294"/>
      <point x="102.458" y="220"/>
      <point x="107.458" y="160" type="curve" smooth="yes"/>
      <point x="108.458" y="151"/>
      <point x="121.458" y="43"/>
      <point x="118.458" y="50" type="curve" smooth="yes"/>
      <point x="107.458" y="74"/>
      <point x="60.4579" y="47"/>
      <point x="57.4579" y="40" type="curve" smooth="yes"/>
      <point x="52.4579" y="29"/>
      <point x="57.4579" y="4"/>
      <point x="68.4579" y="1" type="curve" smooth="yes"/>
      <point x="74.2925" y="-0.944867"/>
      <point x="220.458" y="-7"/>
      <point x="231.458" y="1" type="curve" smooth="yes"/>
      <point x="240.458" y="8"/>
      <point x="246.458" y="29"/>
      <point x="240.458" y="40" type="curve" smooth="yes"/>
      <point x="231.458" y="56"/>
      <point x="170.458" y="74"/>
      <point x="170.458" y="77" type="curve" smooth="yes"/>
      <point x="172.458" y="89"/>
      <point x="184.458" y="143"/>
      <point x="185.458" y="156" type="curve" smooth="yes"/>
      <point x="191.458" y="217"/>
      <point x="195.458" y="292"/>
    </contour>
  </outline>
</glyph>
<glyph name="J" format="2">
  <advance width="500"/>
  <unicode hex="004A"/>
  <outline>
    <contour>
      <point x="417" y="371.5" type="curve" smooth="yes"/>
      <point x="417" y="577.778"/>
      <point x="390.809" y="745"/>
      <point x="358.5" y="745" type="curve" smooth="yes"/>
      <point x="326.191" y="745"/>
      <point x="321" y="574"/>
      <point x="321" y="368" type="curve" smooth="yes"/>
      <point x="321" y="320"/>
      <point x="324" y="168"/>
      <point x="327" y="127" type="curve" smooth="yes"/>
      <point x="329" y="83"/>
      <point x="76" y="307"/>
      <point x="81" y="273" type="curve" smooth="yes"/>
      <point x="92" y="197"/>
      <point x="342" y="-2"/>
      <point x="358.5" y="-2" type="curve" smooth="yes"/>
      <point x="390.809" y="-2"/>
      <point x="417" y="165.222"/>
    </contour>
  </outline>
</glyph>
<glyph name="K" format="2">
  <advance width="500"/>
  <unicode hex="004B"/>
  <outline>
    <contour>
      <point x="409" y="573" type="curve" smooth="yes"/>
      <point x="409" y="605"/>
      <point x="408" y="597"/>
      <point x="405" y="627" type="curve" smooth="yes"/>
      <point x="403" y="656"/>
      <point x="160" y="508"/>
      <point x="156" y="535" type="curve" smooth="yes"/>
      <point x="136" y="650"/>
      <point x="229" y="743"/>
      <point x="183" y="743" type="curve" smooth="yes"/>
      <point x="117" y="743"/>
      <point x="63" y="577"/>
      <point x="63" y="373" type="curve" smooth="yes"/>
      <point x="63" y="168"/>
      <point x="96" y="12"/>
      <point x="162" y="12" type="curve" smooth="yes"/>
      <point x="182" y="12"/>
      <point x="96" y="338"/>
      <point x="137" y="332" type="curve" smooth="yes"/>
      <point x="169" y="327"/>
      <point x="341" y="24"/>
      <point x="365" y="4" type="curve" smooth="yes"/>
      <point x="384" y="-11"/>
      <point x="441" y="-4"/>
      <point x="439" y="17" type="curve" smooth="yes"/>
      <point x="432" y="104"/>
      <point x="134" y="405"/>
      <point x="137" y="426" type="curve" smooth="yes"/>
      <point x="143" y="470"/>
      <point x="409" y="522"/>
    </contour>
  </outline>
</glyph>
<glyph name="L" format="2">
  <advance width="600"/>
  <unicode hex="004C"/>
  <outline>
    <contour>
      <point x="151" y="136" type="curve" smooth="yes"/>
      <point x="151" y="344"/>
      <point x="219" y="746"/>
      <point x="117" y="746" type="curve" smooth="yes"/>
      <point x="15" y="746"/>
      <point x="72" y="565"/>
      <point x="72" y="357" type="curve" smooth="yes"/>
      <point x="72" y="149"/>
      <point x="65" y="7"/>
      <point x="167" y="7" type="curve" smooth="yes"/>
      <point x="230" y="7"/>
      <point x="477" y="2"/>
      <point x="519" y="40" type="curve" smooth="yes"/>
      <point x="545" y="63"/>
      <point x="548" y="67"/>
      <point x="521" y="86" type="curve" smooth="yes"/>
      <point x="507" y="96"/>
      <point x="151" y="89"/>
    </contour>
  </outline>
</glyph>
<glyph name="M" format="2">
  <advance width="1000"/>
  <unicode hex="004D"/>
  <outline>
    <contour>
      <point x="937" y="40" type="curve" smooth="yes"/>
      <point x="937" y="135"/>
      <point x="924" y="616"/>
      <point x="871" y="710" type="curve" smooth="yes"/>
      <point x="845" y="757"/>
      <point x="841" y="753"/>
      <point x="791" y="721" type="curve" smooth="yes"/>
      <point x="739" y="688"/>
      <point x="521" y="189"/>
      <point x="476" y="189" type="curve" smooth="yes"/>
      <point x="419" y="189"/>
      <point x="292" y="652"/>
      <point x="235" y="695" type="curve" smooth="yes"/>
      <point x="211" y="713"/>
      <point x="159" y="712"/>
      <point x="135" y="697" type="curve" smooth="yes"/>
      <point x="36" y="637"/>
      <point x="57" y="177"/>
      <point x="57" y="68" type="curve" smooth="yes"/>
      <point x="57" y="-5"/>
      <point x="61" y="-6"/>
      <point x="123" y="31" type="curve" smooth="yes"/>
      <point x="184" y="67"/>
      <point x="156" y="573"/>
      <point x="196" y="552" type="curve" smooth="yes"/>
      <point x="260" y="516"/>
      <point x="401" y="44"/>
      <point x="485" y="44" type="curve" smooth="yes"/>
      <point x="555" y="44"/>
      <point x="719" y="547"/>
      <point x="776" y="572" type="curve" smooth="yes"/>
      <point x="830" y="597"/>
      <point x="825" y="97"/>
      <point x="885" y="33" type="curve" smooth="yes"/>
      <point x="934" y="-19"/>
      <point x="937" y="-32"/>
    </contour>
  </outline>
</glyph>
<glyph name="N" format="2">
  <advance width="600"/>
  <unicode hex="004E"/>
  <outline>
    <contour>
      <point x="586" y="21" type="curve" smooth="yes"/>
      <point x="619" y="95"/>
      <point x="614" y="752"/>
      <point x="597" y="782" type="curve" smooth="yes"/>
      <point x="557" y="850"/>
      <point x="550" y="831"/>
      <point x="540" y="811" type="curve" smooth="yes"/>
      <point x="518" y="765"/>
      <point x="583" y="111"/>
      <point x="511" y="111" type="curve" smooth="yes"/>
      <point x="456" y="111"/>
      <point x="231" y="726"/>
      <point x="156" y="825" type="curve" smooth="yes"/>
      <point x="108" y="889"/>
      <point x="65" y="840"/>
      <point x="54" y="801" type="curve" smooth="yes"/>
      <point x="20" y="685"/>
      <point x="49" y="75"/>
      <point x="96" y="-6" type="curve" smooth="yes"/>
      <point x="108" y="-27"/>
      <point x="147" y="-42"/>
      <point x="155" y="7" type="curve" smooth="yes"/>
      <point x="166" y="77"/>
      <point x="75" y="706"/>
      <point x="122" y="706" type="curve" smooth="yes"/>
      <point x="186" y="706"/>
      <point x="395" y="111"/>
      <point x="473" y="11" type="curve" smooth="yes"/>
      <point x="481" y="1"/>
      <point x="557" y="-44"/>
    </contour>
  </outline>
</glyph>
<glyph name="O" format="2">
  <advance width="800"/>
  <unicode hex="004F"/>
  <outline>
    <contour>
      <point x="700" y="366.5" type="curve" smooth="yes"/>
      <point x="700" y="573.883"/>
      <point x="574.192" y="742"/>
      <point x="419" y="742" type="curve" smooth="yes"/>
      <point x="263.808" y="742"/>
      <point x="138" y="573.883"/>
      <point x="138" y="366.5" type="curve" smooth="yes"/>
      <point x="138" y="159.117"/>
      <point x="263.808" y="-9"/>
      <point x="419" y="-9" type="curve" smooth="yes"/>
      <point x="574.192" y="-9"/>
      <point x="700" y="159.117"/>
    </contour>
    <contour>
      <point x="645" y="352" type="curve" smooth="yes"/>
      <point x="645" y="190"/>
      <point x="551" y="58"/>
      <point x="435" y="58" type="curve" smooth="yes"/>
      <point x="319" y="58"/>
      <point x="225" y="190"/>
      <point x="225" y="352" type="curve" smooth="yes"/>
      <point x="225" y="513"/>
      <point x="296" y="645"/>
      <point x="435" y="645" type="curve" smooth="yes"/>
      <point x="574" y="645"/>
      <point x="645" y="513"/>
    </contour>
  </outline>
</glyph>
<glyph name="P" format="2">
  <advance width="600"/>
  <unicode hex="0050"/>
  <outline>
    <contour>
      <point x="453" y="551" type="curve" smooth="yes"/>
      <point x="452" y="703"/>
      <point x="328" y="765"/>
      <point x="212" y="765" type="curve" smooth="yes"/>
      <point x="97" y="765"/>
      <point x="89" y="597"/>
      <point x="89" y="389" type="curve" smooth="yes"/>
      <point x="89" y="180"/>
      <point x="126" y="-7"/>
      <point x="241" y="-7" type="curve" smooth="yes"/>
      <point x="331" y="-7"/>
      <point x="145" y="269"/>
      <point x="205" y="415" type="curve" smooth="yes"/>
      <point x="222" y="456"/>
      <point x="455" y="322"/>
    </contour>
    <contour>
      <point x="365" y="575" type="curve" smooth="yes"/>
      <point x="365" y="529.713"/>
      <point x="324.706" y="493"/>
      <point x="275" y="493" type="curve" smooth="yes"/>
      <point x="225.294" y="493"/>
      <point x="185" y="529.713"/>
      <point x="185" y="575" type="curve" smooth="yes"/>
      <point x="185" y="620.287"/>
      <point x="225.294" y="657"/>
      <point x="275" y="657" type="curve" smooth="yes"/>
      <point x="324.706" y="657"/>
      <point x="365" y="620.287"/>
    </contour>
  </outline>
</glyph>
<glyph name="Q" format="2">
  <advance width="800"/>
  <unicode hex="0051"/>
  <outline>
    <contour>
      <point x="726" y="346" type="curve" smooth="yes"/>
      <point x="726" y="554"/>
      <point x="574.192" y="742"/>
      <point x="419" y="742" type="curve" smooth="yes"/>
      <point x="263.808" y="742"/>
      <point x="138" y="573.883"/>
      <point x="138" y="366.5" type="curve" smooth="yes"/>
      <point x="138" y="159.117"/>
      <point x="292" y="-26"/>
      <point x="436" y="-26" type="curve" smooth="yes"/>
      <point x="479" y="-26"/>
      <point x="560" y="34"/>
      <point x="594" y="1" type="curve" smooth="yes"/>
      <point x="730" y="-134"/>
      <point x="718" y="-73"/>
      <point x="651" y="44" type="curve" smooth="yes"/>
      <point x="622" y="94"/>
      <point x="726" y="238"/>
    </contour>
    <contour>
      <point x="645" y="354" type="curve" smooth="yes"/>
      <point x="645" y="272"/>
      <point x="619" y="65"/>
      <point x="567" y="117" type="curve" smooth="yes"/>
      <point x="525" y="159"/>
      <point x="484" y="92"/>
      <point x="520" y="64" type="curve" smooth="yes"/>
      <point x="541" y="46"/>
      <point x="449" y="34"/>
      <point x="422" y="34" type="curve" smooth="yes"/>
      <point x="306" y="34"/>
      <point x="225" y="192"/>
      <point x="225" y="354" type="curve" smooth="yes"/>
      <point x="225" y="516"/>
      <point x="319" y="647"/>
      <point x="435" y="647" type="curve" smooth="yes"/>
      <point x="551" y="647"/>
      <point x="645" y="516"/>
    </contour>
  </outline>
</glyph>
<glyph name="R" format="2">
  <advance width="600"/>
  <unicode hex="0052"/>
  <outline>
    <contour>
      <point x="281" y="370" type="curve" smooth="yes"/>
      <point x="281" y="417"/>
      <point x="404" y="358"/>
      <point x="481" y="383" type="curve" smooth="yes"/>
      <point x="576" y="415"/>
      <point x="545" y="555"/>
      <point x="536" y="662" type="curve" smooth="yes"/>
      <point x="524" y="801"/>
      <point x="268" y="771"/>
      <point x="171" y="771" type="curve" smooth="yes"/>
      <point x="-24" y="771"/>
      <point x="55" y="602"/>
      <point x="55" y="393" type="curve" smooth="yes"/>
      <point x="55" y="185"/>
      <point x="-16" y="-24"/>
      <point x="179" y="-24" type="curve" smooth="yes"/>
      <point x="223" y="-24"/>
      <point x="106" y="304"/>
      <point x="175" y="305" type="curve" smooth="yes"/>
      <point x="252" y="305"/>
      <point x="460" y="-57"/>
      <point x="522" y="-19" type="curve" smooth="yes"/>
      <point x="651" y="60"/>
      <point x="281" y="261"/>
    </contour>
    <contour>
      <point x="472" y="549.5" type="curve" smooth="yes"/>
      <point x="472" y="493.443"/>
      <point x="399.694" y="448"/>
      <point x="310.5" y="448" type="curve" smooth="yes"/>
      <point x="221.306" y="448"/>
      <point x="149" y="493.443"/>
      <point x="149" y="549.5" type="curve" smooth="yes"/>
      <point x="149" y="605.557"/>
      <point x="221.306" y="651"/>
      <point x="310.5" y="651" type="curve" smooth="yes"/>
      <point x="399.694" y="651"/>
      <point x="472" y="605.557"/>
    </contour>
  </outline>
</glyph>
<glyph name="S" format="2">
  <advance width="600"/>
  <unicode hex="0053"/>
  <outline>
    <contour>
      <point x="593" y="187" type="curve" smooth="yes"/>
      <point x="576" y="301"/>
      <point x="249" y="465"/>
      <point x="189" y="583" type="curve" smooth="yes"/>
      <point x="137" y="683"/>
      <point x="506" y="754"/>
      <point x="479" y="754" type="curve" smooth="yes"/>
      <point x="422" y="754"/>
      <point x="92" y="782"/>
      <point x="92" y="570" type="curve" smooth="yes"/>
      <point x="92" y="461"/>
      <point x="457" y="298"/>
      <point x="501" y="179" type="curve" smooth="yes"/>
      <point x="550" y="45"/>
      <point x="88" y="5"/>
      <point x="116" y="5" type="curve" smooth="yes"/>
      <point x="174" y="5"/>
      <point x="619" y="20"/>
    </contour>
  </outline>
</glyph>
<glyph name="T" format="2">
  <advance width="804"/>
  <unicode hex="0054"/>
  <outline>
    <contour>
      <point x="472" y="700" type="curve" smooth="yes"/>
      <point x="472" y="758"/>
      <point x="751" y="588"/>
      <point x="774.115" y="637" type="curve" smooth="yes"/>
      <point x="794" y="678"/>
      <point x="790" y="725"/>
      <point x="768.115" y="754" type="curve" smooth="yes"/>
      <point x="721" y="817"/>
      <point x="442.115" y="765"/>
      <point x="405.615" y="765" type="curve" smooth="yes"/>
      <point x="370.115" y="765"/>
      <point x="89" y="801"/>
      <point x="39.1153" y="752" type="curve" smooth="yes"/>
      <point x="12" y="725"/>
      <point x="-1" y="685"/>
      <point x="30.1153" y="648" type="curve" smooth="yes"/>
      <point x="66" y="606"/>
      <point x="346" y="744"/>
      <point x="351" y="687" type="curve" smooth="yes"/>
      <point x="371" y="467"/>
      <point x="331.333" y="-21"/>
      <point x="405.615" y="-21" type="curve" smooth="yes"/>
      <point x="479.898" y="-21"/>
      <point x="472" y="483"/>
    </contour>
  </outline>
</glyph>
<glyph name="U" format="2">
  <advance width="617"/>
  <unicode hex="0055"/>
  <outline>
    <contour>
      <point x="566.64" y="155" type="curve" smooth="yes"/>
      <point x="563" y="222"/>
      <point x="570" y="690"/>
      <point x="555" y="746" type="curve" smooth="yes"/>
      <point x="543" y="790"/>
      <point x="492" y="780"/>
      <point x="464" y="763" type="curve" smooth="yes"/>
      <point x="419" y="736"/>
      <point x="463.64" y="162"/>
      <point x="437.64" y="136" type="curve" smooth="yes"/>
      <point x="411.64" y="110"/>
      <point x="203.64" y="76"/>
      <point x="180.64" y="163" type="curve" smooth="yes"/>
      <point x="130.64" y="353"/>
      <point x="192.64" y="709"/>
      <point x="168.64" y="747" type="curve" smooth="yes"/>
      <point x="149.64" y="777"/>
      <point x="64.64" y="788"/>
      <point x="53.64" y="743" type="curve" smooth="yes"/>
      <point x="40.64" y="691"/>
      <point x="66.64" y="218"/>
      <point x="66.64" y="155" type="curve" smooth="yes"/>
      <point x="66.64" y="-50"/>
      <point x="290.423" y="2"/>
      <point x="385.14" y="2" type="curve" smooth="yes"/>
      <point x="479.857" y="2"/>
      <point x="574" y="2"/>
    </contour>
  </outline>
</glyph>
<glyph name="V" format="2">
  <advance width="769"/>
  <unicode hex="0056"/>
  <outline>
    <contour>
      <point x="554.476" y="373.5" type="curve" smooth="yes"/>
      <point x="581" y="437"/>
      <point x="733.476" y="694"/>
      <point x="718.476" y="750" type="curve" smooth="yes"/>
      <point x="706.476" y="794"/>
      <point x="626.476" y="789"/>
      <point x="593.476" y="774" type="curve" smooth="yes"/>
      <point x="514.476" y="737"/>
      <point x="406.476" y="166"/>
      <point x="369.476" y="166" type="curve" smooth="yes"/>
      <point x="328.476" y="166"/>
      <point x="209.476" y="708"/>
      <point x="166.476" y="747" type="curve" smooth="yes"/>
      <point x="139.476" y="771"/>
      <point x="62.4757" y="788"/>
      <point x="51.4757" y="743" type="curve" smooth="yes"/>
      <point x="38.4757" y="691"/>
      <point x="114.476" y="456"/>
      <point x="157.476" y="365" type="curve" smooth="yes"/>
      <point x="244.476" y="179"/>
      <point x="262.476" y="-2"/>
      <point x="357.476" y="-2" type="curve" smooth="yes"/>
      <point x="452.476" y="-2"/>
      <point x="531" y="318"/>
    </contour>
  </outline>
</glyph>
<glyph name="W" format="2">
  <advance width="1218"/>
  <unicode hex="0057"/>
  <outline>
    <contour>
      <point x="1152" y="761" type="curve" smooth="yes"/>
      <point x="1150" y="813"/>
      <point x="1117" y="810"/>
      <point x="1097" y="788" type="curve" smooth="yes"/>
      <point x="1041" y="728"/>
      <point x="930" y="83"/>
      <point x="891" y="93" type="curve" smooth="yes"/>
      <point x="812" y="113"/>
      <point x="725" y="718"/>
      <point x="633" y="718" type="curve" smooth="yes"/>
      <point x="583" y="718"/>
      <point x="676" y="719"/>
      <point x="630" y="713" type="curve" smooth="yes"/>
      <point x="572" y="705"/>
      <point x="424" y="96"/>
      <point x="373" y="80" type="curve" smooth="yes"/>
      <point x="319" y="64"/>
      <point x="176" y="699"/>
      <point x="136" y="749" type="curve" smooth="yes"/>
      <point x="109" y="782"/>
      <point x="74" y="771"/>
      <point x="61" y="735" type="curve" smooth="yes"/>
      <point x="38" y="672"/>
      <point x="220" y="102"/>
      <point x="262" y="46" type="curve" smooth="yes"/>
      <point x="321" y="-33"/>
      <point x="406" y="-27"/>
      <point x="482" y="15" type="curve" smooth="yes"/>
      <point x="586" y="72"/>
      <point x="547" y="585"/>
      <point x="644" y="585" type="curve" smooth="yes"/>
      <point x="725" y="585"/>
      <point x="713" y="31"/>
      <point x="788" y="8" type="curve" smooth="yes"/>
      <point x="853" y="-12"/>
      <point x="904" y="-15"/>
      <point x="961" y="2" type="curve" smooth="yes"/>
      <point x="1067" y="34"/>
      <point x="1155" y="688"/>
    </contour>
  </outline>
</glyph>
<glyph name="X" format="2">
  <advance width="750"/>
  <unicode hex="0058"/>
  <outline>
    <contour>
      <point x="420.414" y="417" type="curve" smooth="yes"/>
      <point x="420.414" y="548"/>
      <point x="737.414" y="699"/>
      <point x="638.414" y="769" type="curve" smooth="yes"/>
      <point x="572.414" y="817"/>
      <point x="441.414" y="500"/>
      <point x="358.414" y="500" type="curve" smooth="yes"/>
      <point x="271.414" y="500"/>
      <point x="172.414" y="824"/>
      <point x="108.414" y="771" type="curve" smooth="yes"/>
      <point x="21.4142" y="698"/>
      <point x="269.414" y="530"/>
      <point x="269.414" y="403" type="curve" smooth="yes"/>
      <point x="269.414" y="288"/>
      <point x="-11.5858" y="70"/>
      <point x="62.4142" y="-3" type="curve" smooth="yes"/>
      <point x="129.414" y="-68"/>
      <point x="234.414" y="333"/>
      <point x="332.414" y="333" type="curve" smooth="yes"/>
      <point x="420.414" y="333"/>
      <point x="616.414" y="-66"/>
      <point x="685.414" y="-11" type="curve" smooth="yes"/>
      <point x="777.414" y="64"/>
      <point x="420.414" y="292"/>
    </contour>
  </outline>
</glyph>
<glyph name="Y" format="2">
  <advance width="578"/>
  <unicode hex="0059"/>
  <outline>
    <contour>
      <point x="332.666" y="316" type="curve" smooth="yes"/>
      <point x="332.666" y="433"/>
      <point x="588.666" y="706"/>
      <point x="515.666" y="758" type="curve" smooth="yes"/>
      <point x="456.666" y="800"/>
      <point x="341.666" y="441"/>
      <point x="295.666" y="441" type="curve" smooth="yes"/>
      <point x="249.666" y="441"/>
      <point x="85.666" y="816"/>
      <point x="53.666" y="751" type="curve" smooth="yes"/>
      <point x="17.666" y="678"/>
      <point x="258.666" y="449"/>
      <point x="258.666" y="331" type="curve" smooth="yes"/>
      <point x="258.666" y="109"/>
      <point x="204.666" y="0"/>
      <point x="302.666" y="0" type="curve" smooth="yes"/>
      <point x="400.666" y="0"/>
      <point x="332.666" y="94"/>
    </contour>
  </outline>
</glyph>
<glyph name="Z" format="2">
  <advance width="758"/>
  <unicode hex="005A"/>
  <outline>
    <contour>
      <point x="699.995" y="58" type="curve" smooth="yes"/>
      <point x="689.995" y="145"/>
      <point x="233" y="5"/>
      <point x="210.995" y="66" type="curve" smooth="yes"/>
      <point x="178" y="157"/>
      <point x="770.995" y="771"/>
      <point x="702.995" y="771" type="curve" smooth="yes"/>
      <point x="657.995" y="771"/>
      <point x="121" y="821"/>
      <point x="116.995" y="765" type="curve" smooth="yes"/>
      <point x="110" y="661"/>
      <point x="458" y="757"/>
      <point x="502.995" y="674" type="curve" smooth="yes"/>
      <point x="534" y="616"/>
      <point x="-50" y="-14"/>
      <point x="65.9945" y="-9" type="curve" smooth="yes"/>
      <point x="238" y="-2"/>
      <point x="709.995" y="-29"/>
    </contour>
  </outline>
</glyph>
<glyph name="beatingHeart" format="2">
  <advance width="500"/>
  <unicode hex="1F493"/>
  <outline>
    <contour>
      <point x="344" y="422" type="curve" smooth="yes"/>
      <point x="344" y="450"/>
      <point x="306" y="466"/>
      <point x="281" y="457" type="curve" smooth="yes"/>
      <point x="264" y="451"/>
      <point x="267" y="426"/>
      <point x="249" y="426" type="curve" smooth="yes"/>
      <point x="232" y="426"/>
      <point x="230" y="453"/>
      <point x="216" y="458" type="curve" smooth="yes"/>
      <point x="188" y="468"/>
      <point x="151" y="449"/>
      <point x="151" y="419" type="curve" smooth="yes"/>
      <point x="151" y="374"/>
      <point x="214" y="311"/>
      <point x="250" y="282" type="curve" smooth="yes"/>
      <point x="258" y="276"/>
      <point x="344" y="377"/>
    </contour>
  </outline>
</glyph>
